<mxfile host="app.diagrams.net" modified="2023-07-06T18:32:19.536Z" agent="Mozilla/5.0 (X11; Linux x86_64; rv:109.0) Gecko/20100101 Firefox/113.0" etag="zhHUJ7w0o3XccOvqosHY" version="21.2.2" type="github">
  <diagram name="Page-1" id="A73RMxAbfpvUFZcWIKSA">
    <mxGraphModel dx="2266" dy="894" grid="1" gridSize="10" guides="1" tooltips="1" connect="1" arrows="1" fold="1" page="1" pageScale="1" pageWidth="850" pageHeight="1100" math="0" shadow="0">
      <root>
        <mxCell id="0" />
        <mxCell id="1" parent="0" />
        <mxCell id="m2AstNa7EjtSMFgKrrQF-1" value="production area name (drop down)" style="rounded=1;whiteSpace=wrap;html=1;" parent="1" vertex="1">
          <mxGeometry x="170" y="60" width="110" height="30" as="geometry" />
        </mxCell>
        <mxCell id="m2AstNa7EjtSMFgKrrQF-3" value="&lt;b&gt;&lt;font style=&quot;font-size: 14px;&quot;&gt;Request Page&lt;/font&gt;&lt;/b&gt;" style="text;html=1;strokeColor=none;fillColor=none;align=center;verticalAlign=middle;whiteSpace=wrap;rounded=0;" parent="1" vertex="1">
          <mxGeometry x="20" y="10" width="100" height="50" as="geometry" />
        </mxCell>
        <mxCell id="m2AstNa7EjtSMFgKrrQF-4" value="&lt;div&gt;Template&lt;/div&gt;&lt;div&gt;Raw material layout&lt;br&gt;&lt;/div&gt;" style="whiteSpace=wrap;html=1;aspect=fixed;" parent="1" vertex="1">
          <mxGeometry x="185" y="110" width="80" height="80" as="geometry" />
        </mxCell>
        <mxCell id="m2AstNa7EjtSMFgKrrQF-5" value="" style="endArrow=classic;html=1;rounded=0;exitX=1;exitY=0.5;exitDx=0;exitDy=0;" parent="1" source="m2AstNa7EjtSMFgKrrQF-4" edge="1">
          <mxGeometry width="50" height="50" relative="1" as="geometry">
            <mxPoint x="400" y="490" as="sourcePoint" />
            <mxPoint x="320" y="150" as="targetPoint" />
            <Array as="points" />
          </mxGeometry>
        </mxCell>
        <mxCell id="m2AstNa7EjtSMFgKrrQF-6" value="&lt;div&gt;name, quantity&lt;/div&gt;&lt;div&gt;saving template in DB&lt;br&gt;&lt;/div&gt;" style="text;html=1;strokeColor=none;fillColor=none;align=center;verticalAlign=middle;whiteSpace=wrap;rounded=0;" parent="1" vertex="1">
          <mxGeometry x="330" y="125" width="130" height="65" as="geometry" />
        </mxCell>
        <mxCell id="m2AstNa7EjtSMFgKrrQF-7" value="" style="endArrow=classic;html=1;rounded=0;exitX=0.5;exitY=1;exitDx=0;exitDy=0;entryX=0.5;entryY=0;entryDx=0;entryDy=0;" parent="1" source="m2AstNa7EjtSMFgKrrQF-1" target="m2AstNa7EjtSMFgKrrQF-4" edge="1">
          <mxGeometry width="50" height="50" relative="1" as="geometry">
            <mxPoint x="400" y="490" as="sourcePoint" />
            <mxPoint x="450" y="440" as="targetPoint" />
          </mxGeometry>
        </mxCell>
        <mxCell id="m2AstNa7EjtSMFgKrrQF-8" value="&lt;b&gt;&lt;font style=&quot;font-size: 14px;&quot;&gt;Main Dashboard&lt;/font&gt;&lt;/b&gt;" style="text;html=1;strokeColor=none;fillColor=none;align=center;verticalAlign=middle;whiteSpace=wrap;rounded=0;" parent="1" vertex="1">
          <mxGeometry x="20" y="320" width="120" height="50" as="geometry" />
        </mxCell>
        <mxCell id="m2AstNa7EjtSMFgKrrQF-9" value="R1" style="whiteSpace=wrap;html=1;aspect=fixed;" parent="1" vertex="1">
          <mxGeometry x="256" y="390" width="30" height="30" as="geometry" />
        </mxCell>
        <mxCell id="m2AstNa7EjtSMFgKrrQF-10" value="R2" style="whiteSpace=wrap;html=1;aspect=fixed;" parent="1" vertex="1">
          <mxGeometry x="306" y="390" width="30" height="30" as="geometry" />
        </mxCell>
        <mxCell id="m2AstNa7EjtSMFgKrrQF-11" value="R3" style="whiteSpace=wrap;html=1;aspect=fixed;" parent="1" vertex="1">
          <mxGeometry x="356" y="390" width="30" height="30" as="geometry" />
        </mxCell>
        <mxCell id="m2AstNa7EjtSMFgKrrQF-14" value="" style="rounded=0;whiteSpace=wrap;html=1;fillColor=none;" parent="1" vertex="1">
          <mxGeometry x="216" y="365" width="210" height="80" as="geometry" />
        </mxCell>
        <mxCell id="m2AstNa7EjtSMFgKrrQF-15" value="line 1" style="text;html=1;strokeColor=none;fillColor=none;align=center;verticalAlign=middle;whiteSpace=wrap;rounded=0;" parent="1" vertex="1">
          <mxGeometry x="216" y="360" width="60" height="30" as="geometry" />
        </mxCell>
        <mxCell id="m2AstNa7EjtSMFgKrrQF-16" value="R1" style="whiteSpace=wrap;html=1;aspect=fixed;" parent="1" vertex="1">
          <mxGeometry x="256" y="500" width="30" height="30" as="geometry" />
        </mxCell>
        <mxCell id="m2AstNa7EjtSMFgKrrQF-17" value="R2" style="whiteSpace=wrap;html=1;aspect=fixed;" parent="1" vertex="1">
          <mxGeometry x="306" y="500" width="30" height="30" as="geometry" />
        </mxCell>
        <mxCell id="m2AstNa7EjtSMFgKrrQF-19" value="" style="rounded=0;whiteSpace=wrap;html=1;fillColor=none;" parent="1" vertex="1">
          <mxGeometry x="216" y="470" width="210" height="80" as="geometry" />
        </mxCell>
        <mxCell id="m2AstNa7EjtSMFgKrrQF-20" value="line 2" style="text;html=1;strokeColor=none;fillColor=none;align=center;verticalAlign=middle;whiteSpace=wrap;rounded=0;" parent="1" vertex="1">
          <mxGeometry x="216" y="470" width="60" height="30" as="geometry" />
        </mxCell>
        <mxCell id="m2AstNa7EjtSMFgKrrQF-21" value="" style="endArrow=classic;html=1;rounded=0;exitX=1;exitY=0.5;exitDx=0;exitDy=0;" parent="1" source="m2AstNa7EjtSMFgKrrQF-11" edge="1">
          <mxGeometry width="50" height="50" relative="1" as="geometry">
            <mxPoint x="406" y="490" as="sourcePoint" />
            <mxPoint x="496" y="405" as="targetPoint" />
          </mxGeometry>
        </mxCell>
        <mxCell id="m2AstNa7EjtSMFgKrrQF-23" value="&lt;div&gt;R3:&lt;/div&gt;&lt;div&gt;&lt;br&gt;&lt;/div&gt;&lt;div&gt;Status&lt;/div&gt;&lt;div&gt;(Click for detail)&lt;br&gt;&lt;/div&gt;" style="whiteSpace=wrap;html=1;aspect=fixed;" parent="1" vertex="1">
          <mxGeometry x="499" y="360" width="100" height="100" as="geometry" />
        </mxCell>
        <mxCell id="m2AstNa7EjtSMFgKrrQF-24" value="add new request button" style="rounded=1;whiteSpace=wrap;html=1;" parent="1" vertex="1">
          <mxGeometry x="216" y="580" width="140" height="30" as="geometry" />
        </mxCell>
        <mxCell id="m2AstNa7EjtSMFgKrrQF-25" value="&lt;div&gt;line1 and line 2 depend on how the warehouse work&lt;/div&gt;&lt;div&gt;&lt;br&gt;&lt;/div&gt;&lt;div&gt;push notification can be used once the status update&lt;br&gt;&lt;/div&gt;" style="text;html=1;strokeColor=none;fillColor=none;align=center;verticalAlign=middle;whiteSpace=wrap;rounded=0;" parent="1" vertex="1">
          <mxGeometry x="12" y="445" width="158" height="30" as="geometry" />
        </mxCell>
        <mxCell id="m2AstNa7EjtSMFgKrrQF-28" value="&lt;b&gt;&lt;font style=&quot;font-size: 14px;&quot;&gt;Detail Page&lt;br&gt;&lt;/font&gt;&lt;/b&gt;" style="text;html=1;strokeColor=none;fillColor=none;align=center;verticalAlign=middle;whiteSpace=wrap;rounded=0;" parent="1" vertex="1">
          <mxGeometry x="20" y="700" width="120" height="50" as="geometry" />
        </mxCell>
        <mxCell id="HOYNbTqQQRkqQAGYqNno-6" style="edgeStyle=orthogonalEdgeStyle;rounded=0;orthogonalLoop=1;jettySize=auto;html=1;" edge="1" parent="1">
          <mxGeometry relative="1" as="geometry">
            <mxPoint x="470" y="750" as="targetPoint" />
            <mxPoint x="356" y="750" as="sourcePoint" />
          </mxGeometry>
        </mxCell>
        <mxCell id="HOYNbTqQQRkqQAGYqNno-1" value="&lt;div&gt;&lt;br&gt;&lt;/div&gt;&lt;div&gt;&lt;div&gt;Current event&lt;/div&gt;&lt;div&gt;&lt;br&gt;&lt;/div&gt;&lt;/div&gt;&lt;div&gt;History:&lt;/div&gt;&lt;div&gt;Event a time stamp&lt;br&gt;&lt;/div&gt;&lt;div&gt;Event b time stamp&lt;/div&gt;&lt;div&gt;Event c time stamp&lt;/div&gt;" style="rounded=0;whiteSpace=wrap;html=1;fillColor=none;" vertex="1" parent="1">
          <mxGeometry x="200" y="720" width="220" height="120" as="geometry" />
        </mxCell>
        <mxCell id="HOYNbTqQQRkqQAGYqNno-2" value="cancel button" style="rounded=1;whiteSpace=wrap;html=1;" vertex="1" parent="1">
          <mxGeometry x="200" y="860" width="90" height="30" as="geometry" />
        </mxCell>
        <mxCell id="HOYNbTqQQRkqQAGYqNno-3" value="" style="endArrow=classic;html=1;rounded=0;exitX=1;exitY=0.5;exitDx=0;exitDy=0;" edge="1" parent="1" source="HOYNbTqQQRkqQAGYqNno-2">
          <mxGeometry width="50" height="50" relative="1" as="geometry">
            <mxPoint x="360" y="580" as="sourcePoint" />
            <mxPoint x="330" y="875" as="targetPoint" />
          </mxGeometry>
        </mxCell>
        <mxCell id="HOYNbTqQQRkqQAGYqNno-4" value="check DB if it is allowed" style="text;html=1;strokeColor=none;fillColor=none;align=center;verticalAlign=middle;whiteSpace=wrap;rounded=0;" vertex="1" parent="1">
          <mxGeometry x="356" y="860" width="174" height="30" as="geometry" />
        </mxCell>
        <mxCell id="HOYNbTqQQRkqQAGYqNno-5" value="" style="endArrow=classic;html=1;rounded=0;" edge="1" parent="1">
          <mxGeometry width="50" height="50" relative="1" as="geometry">
            <mxPoint x="340" y="610" as="sourcePoint" />
            <mxPoint x="390" y="560" as="targetPoint" />
          </mxGeometry>
        </mxCell>
        <mxCell id="HOYNbTqQQRkqQAGYqNno-7" value="&lt;div&gt;Stop Watch animation&lt;br&gt;&lt;/div&gt;" style="ellipse;whiteSpace=wrap;html=1;aspect=fixed;" vertex="1" parent="1">
          <mxGeometry x="480" y="710" width="80" height="80" as="geometry" />
        </mxCell>
      </root>
    </mxGraphModel>
  </diagram>
</mxfile>
